<?xml version="1.0" encoding="utf-8"?>
<!-- Generator: Adobe Illustrator 17.0.0, SVG Export Plug-In . SVG Version: 6.00 Build 0)  -->
<!DOCTYPE svg PUBLIC "-//W3C//DTD SVG 1.1//EN" "http://www.w3.org/Graphics/SVG/1.1/DTD/svg11.dtd">
<svg version="1.1" id="Lager_1" xmlns="http://www.w3.org/2000/svg" xmlns:xlink="http://www.w3.org/1999/xlink" x="0px" y="0px"
	 width="600px" height="600px" viewBox="0 0 600 600" enable-background="new 0 0 600 600" xml:space="preserve">
<g>
	<g>
		<path fill="#FFFFFF" d="M614.986,571.985c-207.438,0-414.876,0-622.315,0c0-185.437,0-370.874,0-556.312
			c207.438,0,414.876,0,622.314,0C614.986,201.11,614.986,386.547,614.986,571.985z M305.376,523.323
			c0.311-0.041,0.623-0.123,0.933-0.117c7.149,0.138,11.776-3.718,11.797-10.432c0.023-7.468-5.298-5.816-9.968-3.871
			c-0.431,0.179-1.295-0.188-1.722-0.567c-7.078-6.291-14.035-12.722-21.221-18.885c-2.022-1.734-4.694-2.71-7.069-4.034
			c-0.26,3.2-1.092,6.499-0.56,9.561c0.305,1.754,2.805,3.146,4.359,4.658c3.928,3.82,6.439,7.356,1.651,12.809
			c-1.344,1.531,0.104,6.123,1.144,8.995c1.661,4.59,3.769,9.084,6.263,13.276c1.082,1.819,3.532,3.818,5.467,3.933
			c4.196,0.249,8.461-0.662,15.003-1.337c3.509-4.929-4.054-8.918-5.818-14.25L305.376,523.323z M191.435,208.314
			c-7.686,7.214-7.053,17.34,2.024,21.346c15.159,6.691,30.832,12.208,46.127,18.606c10.6,4.434,20.928,9.519,32.363,14.765
			c-8.2,9.299-21.263,5.221-24.852,17.171c10.124-1.17,20.348-2.386,29.431-6.269c13.273-5.675,25.39-4.18,37.835,1.491
			c6.506,2.964,13.125,5.71,19.832,8.174c1.274,0.468,4.094-0.417,4.598-1.456c0.586-1.207-0.033-4.028-1.108-4.822
			c-3.229-2.383-6.744-4.632-10.485-6.028c-34.78-12.976-69.649-25.71-104.45-38.63c-12.447-4.621-27.349-6.332-29.745-23.675
			C192.982,208.834,192.47,208.747,191.435,208.314z M6.528,51.06c0.059,1.388,0.118,2.776,0.177,4.165
			c4.392,0.571,8.79,1.678,13.175,1.628c36.608-0.425,73.212-1.309,109.82-1.539c20.33-0.127,40.666,0.98,60.999,0.952
			c4.408-0.006,8.813-2.488,13.219-3.829c-4.294-1.307-8.578-3.703-12.884-3.744c-29.059-0.276-58.124-0.069-87.186,0.014
			c-29.456,0.084-58.912,0.149-88.367,0.4C12.491,49.133,9.512,50.38,6.528,51.06z M385.436,50.702
			c0.026,1.322,0.052,2.643,0.078,3.965c3.923,0.529,7.848,1.533,11.769,1.514c45.202-0.226,90.403-0.754,135.605-0.868
			c15.65-0.04,31.304,1.118,46.953,1.058c2.892-0.011,5.772-3.24,8.658-4.983c-2.816-1.267-5.633-3.641-8.449-3.639
			c-61.207,0.045-122.414,0.315-183.619,0.711C392.76,48.482,389.1,49.921,385.436,50.702z M328.628,351.965
			c1.791-8.741-4.302-11.422-8.757-13.495c-29.394-13.673-59.1-26.675-88.557-40.217c-6.752-3.104-13.732-6.679-12.827-16.4
			c0.16-1.718-2.085-3.66-3.219-5.499c-1.666,1.659-4.507,3.14-4.792,5.01c-1.136,7.45-0.177,14.63,7.549,18.492
			c13.406,6.701,27.075,12.888,40.364,19.806c6.425,3.345,12.239,7.862,18.924,12.237c-7.062,5.308-12.385,9.309-17.709,13.31
			c0.709,1.302,1.418,2.604,2.128,3.906c6.382-2.516,13.097-4.425,19.064-7.699c7.688-4.217,14.556-5.712,22.757-0.902
			C311.033,344.902,319.373,347.82,328.628,351.965z M570.371,78.208c-10.395-6.892-180.131-4.584-188.218,1.86
			c4.954,0.898,8.731,2.151,12.516,2.177c22.813,0.159,45.629,0.081,68.443-0.002c31.33-0.114,62.661-0.207,93.988-0.588
			C560.786,81.609,564.451,79.802,570.371,78.208z M204.738,80.564c-0.038-1.462-0.076-2.923-0.114-4.385
			c-2.589-0.572-5.183-1.653-7.767-1.631c-13.424,0.113-26.845,0.664-40.269,0.761c-14.7,0.106-29.403-0.264-44.103-0.163
			c-25.08,0.173-50.16,0.49-75.235,0.98c-1.687,0.033-3.336,2.03-5.002,3.114c1.679,1.452,3.219,3.898,5.066,4.157
			c4.302,0.603,8.752,0.166,13.142,0.129c44.815-0.38,89.63-0.698,134.444-1.221C191.518,82.227,198.125,81.169,204.738,80.564z
			 M321.151,65.418c-0.193-17.237-9.544-27.314-25.241-27.203c-16.346,0.116-28.325,12.006-27.877,27.669
			c0.391,13.641,12.878,26.546,25.744,26.606C309.33,92.562,321.322,80.702,321.151,65.418z M519.901,105.488
			c-3.25-0.806-6.497-2.277-9.752-2.297c-11.909-0.073-23.82,0.481-35.731,0.537c-31.898,0.15-63.797,0.079-95.693,0.324
			c-4.804,0.037-9.599,1.296-16.281,2.262C370.85,112.805,510.308,112.891,519.901,105.488z M76.372,107.376
			c0.206,1,0.412,1.999,0.617,2.999c49.374,0,98.748,0,148.122,0c0.173-0.992,0.345-1.984,0.518-2.976
			c-2.614-0.89-5.223-2.542-7.841-2.556c-44.366-0.237-88.733-0.323-133.1-0.226C81.915,104.623,79.144,106.415,76.372,107.376z
			 M464.657,140.41c0.001-0.193,0.001-0.385,0.002-0.578c3.132,0,6.429,0.607,9.346-0.185c2.504-0.679,4.574-2.956,6.837-4.526
			c-2.57-1.25-5.119-3.507-7.715-3.563c-7.796-0.168-15.609,0.806-23.416,0.818c-14.612,0.023-29.225-0.483-43.837-0.463
			c-16.825,0.023-33.649,0.373-50.473,0.59c-1.878,0.024-3.989-0.41-5.568,0.305c-1.68,0.761-2.855,2.635-4.25,4.024
			c1.294,1.154,2.414,2.79,3.927,3.335c1.675,0.602,3.708,0.238,5.586,0.239C391.616,140.412,428.136,140.41,464.657,140.41z
			 M317.29,407.404c0.756-1.127,1.512-2.254,2.268-3.38c-2.383-2.489-4.38-5.622-7.232-7.329c-5.571-3.335-11.84-5.498-17.428-8.808
			c-19.845-11.756-45.617-14.712-56.844-38.956c-6.923,5.937-8.097,10.535-1.782,15.616c8.11,6.525,17.397,11.9,26.833,16.394
			c14.611,6.96,18.464,11.124,17.086,23.225c6.332-1.366,12.56-4.167,18.454-3.585C305.023,401.21,311.089,404.995,317.29,407.404z
			 M242.902,138.148c0.027-1.326,0.054-2.652,0.081-3.978c-7.015-0.787-14.035-2.278-21.046-2.241
			c-31.904,0.17-63.807,0.685-95.705,1.338c-3.534,0.072-7.033,1.814-10.549,2.781c3.802,1.699,7.598,4.855,11.406,4.87
			c36.029,0.144,72.061-0.202,108.09-0.581C237.761,140.31,240.328,138.91,242.902,138.148z M327.682,249.038
			c0.413,1.276,0.827,2.553,1.24,3.829c3.506,0,7.259,0.826,10.477-0.137c17.628-5.275,35.428-10.23,52.476-17.031
			c4.883-1.948,7.836-9.468,10.818-14.903c0.702-1.279-2.066-4.461-3.238-6.768c-1.602,1.551-3.202,3.104-4.806,4.653
			c-3.807,3.679-6.993,8.976-11.543,10.729c-13.065,5.033-26.74,8.459-40.054,12.881
			C337.765,244.046,332.796,246.76,327.682,249.038z M300.958,497.961c10.654,4.22,15.29-2.546,19.935-7.872
			c1.661-1.904,1.139-5.711,1.614-8.649c-2.234-0.031-4.48,0.071-6.697-0.138c-1.47-0.138-3.169-0.345-4.301-1.164
			c-10.342-7.471-20.509-15.187-30.908-22.577c-2.393-1.701-5.477-2.429-8.242-3.605c0.748,2.768,0.803,6.037,2.372,8.214
			c5.267,7.311,11.074,14.233,17.397,22.216c5.06-2.331,11.578-2.558,15.602,5.881C305.742,492.524,303.926,494.587,300.958,497.961
			z M322.651,164.376c5.737,5.738,87.5,5.687,93.596-0.058C409.636,159.21,333.844,159.257,322.651,164.376z M316.897,447.787
			c-3.143-3.126-5.393-5.842-8.102-7.977c-12.698-10.01-25.472-19.924-38.368-29.677c-1.445-1.093-3.828-0.946-5.776-1.374
			c-0.476,2.249-2.131,5.531-1.222,6.567c3.829,4.368,8.22,8.32,12.784,11.949c6.824,5.427,15.673,9.737,7.996,20.511
			C294.739,447.787,304.643,447.787,316.897,447.787z M211.009,209.527c0.596,1.349,1.193,2.699,1.789,4.048
			c3.173-1.003,6.607-1.528,9.47-3.097c9.186-5.035,17.437-11.889,29.228-10.266c4.378,0.603,9.597-0.647,13.589-2.696
			c4.009-2.058,7.22-5.955,10.185-9.539c0.631-0.763-0.925-4.02-2.245-5.377c-0.531-0.546-3.14,0.922-4.801,1.481
			c-7.179,2.415-14.336,6.771-21.541,6.854C230.782,191.119,221.977,201.818,211.009,209.527z M317.052,182.731
			c-0.748,0.47-1.497,0.941-2.245,1.411c0.975,3.122,1.166,8.282,3.062,9.013c8.008,3.084,16.525,4.844,24.853,7.099
			c5.483,1.485,11.108,2.606,16.38,4.638c2.783,1.073,4.683,4.448,7.467,5.504c2.764,1.049,6.137,0.492,9.243,0.639
			c-1.307-2.797-1.921-6.411-4.061-8.224c-4.739-4.014-10.049-7.481-15.513-10.463c-3.08-1.681-6.892-2.144-10.437-2.825
			c-7.432-1.428-14.932-2.51-22.348-4.014C321.223,185.057,319.181,183.683,317.052,182.731z M180.445,164.633
			c3.253,2.151,4.009,3.085,4.776,3.094c26.012,0.323,52.026,0.637,78.039,0.61c1.588-0.002,3.173-2.816,4.76-4.321
			c-1.98-1.057-3.962-3.036-5.938-3.03c-24.121,0.069-48.243,0.366-72.361,0.811C187.278,161.841,184.86,163.236,180.445,164.633z
			 M319.794,315.836c0.985,1.328,1.971,2.655,2.956,3.983c14.674-7.11,29.457-14.006,43.945-21.476
			c3.747-1.932,7.243-5.187,9.674-8.661c5.488-7.844,2.625-15.685-6.411-17.322c1.67,13.813-6.612,20.13-17.99,24.751
			c-8.881,3.607-17.353,8.273-25.812,12.83C323.692,311.269,321.896,313.837,319.794,315.836z M313.622,380.619
			c0.401,1.191,0.802,2.382,1.202,3.573c3.387-0.756,7.032-0.955,10.113-2.375c8.13-3.748,15.908-8.259,24.026-12.037
			c10.648-4.955,15.158-19.603,7.52-28.108c-1.174,1.895-3.106,3.574-3.106,5.253c-0.001,8.303-4.288,12.801-11.414,16.499
			C332.178,368.504,323.039,374.828,313.622,380.619z M312.688,431.429c12.316,0.153,27.643-9.662,29.025-17.591
			c0.361-2.071-0.847-4.416-1.335-6.635c-1.823,0.766-3.953,1.158-5.415,2.363c-6.194,5.106-12.258,10.377-18.208,15.766
			C315.337,426.619,314.541,428.594,312.688,431.429z M310.796,467.06c9.333,2.613,23.795-8.175,22.253-16.202
			c-0.327-1.701-5.285-4.203-5.467-3.997C321.844,453.342,316.434,460.114,310.796,467.06z"/>
		<path d="M191.435,208.314c1.035,0.433,1.547,0.52,1.569,0.674c2.397,17.343,17.298,19.054,29.745,23.675
			c34.801,12.92,69.67,25.654,104.45,38.63c3.741,1.396,7.256,3.645,10.485,6.028c1.075,0.793,1.695,3.615,1.108,4.822
			c-0.505,1.039-3.324,1.924-4.598,1.456c-6.707-2.464-13.326-5.21-19.832-8.174c-12.445-5.671-24.562-7.166-37.835-1.491
			c-9.083,3.884-19.307,5.099-29.431,6.269c3.589-11.95,16.653-7.872,24.852-17.171c-11.434-5.246-21.763-10.331-32.363-14.765
			c-15.295-6.398-30.967-11.915-46.127-18.606C184.382,225.654,183.749,215.528,191.435,208.314z"/>
		<path d="M6.528,51.06c2.984-0.68,5.963-1.927,8.953-1.953c29.455-0.251,58.911-0.316,88.367-0.4
			c29.063-0.083,58.127-0.29,87.186-0.014c4.306,0.041,8.59,2.437,12.884,3.744c-4.406,1.342-8.811,3.823-13.219,3.829
			c-20.333,0.027-40.669-1.08-60.999-0.952c-36.608,0.229-73.212,1.114-109.82,1.539c-4.385,0.051-8.783-1.057-13.175-1.628
			C6.646,53.837,6.587,52.448,6.528,51.06z"/>
		<path d="M385.436,50.702c3.664-0.78,7.324-2.219,10.994-2.243c61.206-0.396,122.412-0.666,183.619-0.711
			c2.815-0.002,5.632,2.371,8.449,3.639c-2.886,1.744-5.766,4.972-8.658,4.983c-15.649,0.06-31.303-1.098-46.953-1.058
			c-45.202,0.114-90.403,0.642-135.605,0.868c-3.92,0.02-7.846-0.985-11.769-1.514C385.488,53.345,385.462,52.023,385.436,50.702z"
			/>
		<path d="M328.628,351.965c-9.255-4.145-17.595-7.063-25.074-11.449c-8.201-4.809-15.069-3.315-22.757,0.902
			c-5.967,3.273-12.681,5.183-19.064,7.699c-0.709-1.302-1.418-2.604-2.128-3.906c5.323-4.001,10.647-8.002,17.709-13.31
			c-6.685-4.375-12.5-8.892-18.924-12.237c-13.29-6.919-26.958-13.105-40.364-19.806c-7.726-3.862-8.685-11.042-7.549-18.492
			c0.285-1.87,3.126-3.35,4.792-5.01c1.134,1.839,3.379,3.781,3.219,5.499c-0.905,9.721,6.075,13.296,12.827,16.4
			c29.457,13.542,59.163,26.544,88.557,40.217C324.326,340.543,330.419,343.224,328.628,351.965z"/>
		<path d="M570.371,78.208c-5.92,1.595-9.585,3.402-13.271,3.446c-31.327,0.381-62.658,0.474-93.988,0.588
			c-22.814,0.083-45.63,0.161-68.443,0.002c-3.785-0.026-7.562-1.278-12.516-2.177C390.241,73.624,559.976,71.316,570.371,78.208z"
			/>
		<path d="M204.738,80.564c-6.613,0.604-13.22,1.663-19.839,1.74c-44.813,0.524-89.629,0.841-134.444,1.221
			c-4.39,0.037-8.84,0.474-13.142-0.129c-1.847-0.259-3.386-2.705-5.066-4.157c1.667-1.084,3.315-3.081,5.002-3.114
			c25.075-0.491,50.155-0.808,75.235-0.98c14.7-0.101,29.403,0.269,44.103,0.163c13.424-0.097,26.845-0.648,40.269-0.761
			c2.584-0.022,5.178,1.059,7.767,1.631C204.662,77.641,204.7,79.103,204.738,80.564z"/>
		<path d="M321.151,65.418c0.171,15.285-11.821,27.145-27.374,27.072c-12.867-0.06-25.354-12.965-25.744-26.606
			c-0.448-15.663,11.531-27.553,27.877-27.669C311.607,38.103,320.957,48.181,321.151,65.418z M294.948,45.926
			c-10.29,0.095-19.271,9.308-18.951,19.44c0.302,9.539,9.636,18.922,18.919,19.018c10.499,0.109,18.314-7.67,18.352-18.267
			C313.313,53.424,306.414,45.82,294.948,45.926z"/>
		<path d="M519.901,105.488c-9.593,7.404-149.051,7.318-157.458,0.826c6.682-0.966,11.477-2.226,16.281-2.262
			c31.897-0.245,63.796-0.174,95.693-0.324c11.911-0.056,23.823-0.61,35.731-0.537C513.404,103.21,516.65,104.682,519.901,105.488z"
			/>
		<path d="M76.372,107.376c2.772-0.961,5.542-2.753,8.316-2.759c44.367-0.097,88.734-0.011,133.1,0.226
			c2.618,0.014,5.228,1.666,7.841,2.556c-0.173,0.992-0.345,1.984-0.518,2.976c-49.374,0-98.748,0-148.122,0
			C76.784,109.376,76.578,108.376,76.372,107.376z"/>
		<path d="M305.639,523.063c1.764,5.332,9.326,9.321,5.818,14.25c-6.542,0.675-10.807,1.586-15.003,1.337
			c-1.936-0.115-4.385-2.114-5.467-3.933c-2.494-4.192-4.603-8.686-6.263-13.276c-1.039-2.872-2.487-7.465-1.144-8.995
			c4.788-5.453,2.277-8.989-1.651-12.809c-1.554-1.511-4.054-2.904-4.359-4.658c-0.533-3.062,0.299-6.361,0.56-9.561
			c2.374,1.324,5.047,2.3,7.069,4.034c7.187,6.163,14.143,12.594,21.221,18.885c0.427,0.379,1.291,0.746,1.722,0.567
			c4.669-1.945,9.991-3.597,9.968,3.871c-0.021,6.714-4.647,10.57-11.797,10.432c-0.31-0.006-0.622,0.076-0.927,0.11
			c2.175-10.709-5.861-8.479-12.522-11.275C294.6,521.293,300.409,521.793,305.639,523.063z"/>
		<path d="M464.657,140.41c-36.521,0-73.042,0.002-109.562-0.005c-1.877,0-3.911,0.364-5.586-0.239
			c-1.513-0.544-2.634-2.18-3.927-3.335c1.395-1.388,2.571-3.263,4.25-4.024c1.579-0.715,3.69-0.281,5.568-0.305
			c16.824-0.217,33.649-0.567,50.473-0.59c14.612-0.02,29.225,0.486,43.837,0.463c7.807-0.012,15.621-0.985,23.416-0.818
			c2.596,0.056,5.144,2.312,7.715,3.563c-2.262,1.57-4.333,3.847-6.837,4.526c-2.918,0.791-6.214,0.185-9.346,0.185
			C464.658,140.025,464.658,140.218,464.657,140.41z"/>
		<path d="M317.29,407.404c-6.202-2.409-12.268-6.195-18.645-6.824c-5.894-0.581-12.122,2.22-18.454,3.585
			c1.378-12.101-2.475-16.266-17.086-23.225c-9.435-4.495-18.722-9.869-26.833-16.394c-6.315-5.081-5.141-9.678,1.782-15.616
			c11.227,24.244,36.999,27.199,56.844,38.956c5.588,3.31,11.858,5.473,17.428,8.808c2.851,1.707,4.848,4.841,7.232,7.329
			C318.803,405.151,318.047,406.278,317.29,407.404z"/>
		<path d="M242.902,138.148c-2.574,0.762-5.141,2.161-7.723,2.188c-36.029,0.379-72.061,0.724-108.09,0.581
			c-3.809-0.015-7.604-3.171-11.406-4.87c3.515-0.967,7.015-2.709,10.549-2.781c31.898-0.652,63.802-1.167,95.705-1.338
			c7.011-0.037,14.03,1.454,21.046,2.241C242.956,135.496,242.929,136.822,242.902,138.148z"/>
		<path d="M327.682,249.038c5.114-2.278,10.083-4.992,15.371-6.748c13.314-4.422,26.989-7.847,40.054-12.881
			c4.55-1.753,7.735-7.049,11.543-10.729c1.604-1.55,3.204-3.102,4.806-4.653c1.172,2.307,3.939,5.489,3.238,6.768
			c-2.982,5.435-5.935,12.955-10.818,14.903c-17.048,6.801-34.848,11.756-52.476,17.031c-3.218,0.963-6.971,0.137-10.477,0.137
			C328.508,251.591,328.095,250.315,327.682,249.038z"/>
		<path d="M300.958,497.961c2.968-3.373,4.784-5.436,6.77-7.694c-4.024-8.439-10.542-8.212-15.602-5.881
			c-6.323-7.983-12.13-14.905-17.397-22.216c-1.569-2.177-1.623-5.446-2.372-8.214c2.766,1.176,5.85,1.904,8.242,3.605
			c10.398,7.391,20.565,15.106,30.908,22.577c1.133,0.818,2.832,1.025,4.301,1.164c2.217,0.209,4.463,0.108,6.697,0.138
			c-0.475,2.938,0.047,6.745-1.614,8.649C316.248,495.414,311.612,502.181,300.958,497.961z"/>
		<path d="M322.651,164.376c11.193-5.119,86.985-5.166,93.596-0.058C410.151,170.063,328.387,170.114,322.651,164.376z"/>
		<path d="M316.897,447.787c-12.254,0-22.158,0-32.688,0c7.677-10.774-1.173-15.085-7.996-20.511
			c-4.563-3.629-8.954-7.581-12.784-11.949c-0.908-1.036,0.747-4.318,1.222-6.567c1.948,0.428,4.331,0.281,5.776,1.374
			c12.895,9.753,25.67,19.667,38.368,29.677C311.503,441.945,313.754,444.661,316.897,447.787z"/>
		<path d="M211.009,209.527c10.969-7.709,19.773-18.408,35.674-18.592c7.206-0.083,14.362-4.439,21.541-6.854
			c1.661-0.559,4.27-2.027,4.801-1.481c1.32,1.357,2.876,4.615,2.245,5.377c-2.966,3.583-6.176,7.481-10.185,9.539
			c-3.992,2.049-9.211,3.299-13.589,2.696c-11.791-1.623-20.042,5.231-29.228,10.266c-2.863,1.569-6.297,2.094-9.47,3.097
			C212.201,212.226,211.605,210.876,211.009,209.527z"/>
		<path d="M317.052,182.731c2.128,0.952,4.171,2.326,6.401,2.778c7.415,1.503,14.915,2.586,22.348,4.014
			c3.546,0.681,7.357,1.144,10.437,2.825c5.464,2.982,10.774,6.449,15.513,10.463c2.14,1.813,2.754,5.427,4.061,8.224
			c-3.106-0.147-6.479,0.41-9.243-0.639c-2.784-1.056-4.684-4.432-7.467-5.504c-5.273-2.033-10.897-3.154-16.38-4.638
			c-8.328-2.255-16.846-4.014-24.853-7.099c-1.896-0.73-2.087-5.89-3.062-9.013C315.555,183.672,316.304,183.201,317.052,182.731z"
			/>
		<path d="M180.445,164.633c4.415-1.397,6.833-2.792,9.275-2.837c24.118-0.445,48.239-0.742,72.361-0.811
			c1.977-0.006,3.959,1.973,5.938,3.03c-1.587,1.506-3.172,4.32-4.76,4.321c-26.013,0.028-52.026-0.287-78.039-0.61
			C184.454,167.717,183.698,166.783,180.445,164.633z"/>
		<path d="M319.794,315.836c2.102-1.999,3.898-4.568,6.362-5.895c8.459-4.557,16.931-9.223,25.812-12.83
			c11.378-4.621,19.661-10.938,17.99-24.751c9.036,1.637,11.899,9.479,6.411,17.322c-2.431,3.474-5.927,6.73-9.674,8.661
			c-14.488,7.47-29.272,14.366-43.945,21.476C321.765,318.492,320.78,317.164,319.794,315.836z"/>
		<path d="M313.622,380.619c9.416-5.791,18.555-12.116,28.341-17.194c7.126-3.698,11.413-8.196,11.414-16.499
			c0-1.679,1.931-3.359,3.106-5.253c7.638,8.504,3.128,23.152-7.52,28.108c-8.118,3.778-15.896,8.288-24.026,12.037
			c-3.081,1.421-6.725,1.619-10.113,2.375C314.424,383.001,314.023,381.81,313.622,380.619z"/>
		<path d="M312.688,431.429c1.852-2.835,2.648-4.81,4.068-6.096c5.95-5.389,12.014-10.661,18.208-15.766
			c1.461-1.204,3.592-1.597,5.415-2.363c0.488,2.219,1.696,4.564,1.335,6.635C340.331,421.767,325.004,431.582,312.688,431.429z"/>
		<path d="M310.796,467.06c5.638-6.946,11.048-13.718,16.786-20.2c0.182-0.206,5.14,2.296,5.467,3.997
			C334.59,458.885,320.129,469.673,310.796,467.06z"/>
		<path fill="#FFFFFF" d="M294.948,45.926c11.467-0.106,18.366,7.498,18.32,20.191c-0.038,10.597-7.852,18.376-18.352,18.267
			c-9.283-0.096-18.617-9.479-18.919-19.018C275.677,55.234,284.658,46.021,294.948,45.926z"/>
		<path fill="#FFFFFF" d="M305.639,523.063c-5.23-1.27-11.038-1.77-12.777-11.022c6.66,2.796,14.697,0.566,12.522,11.275
			C305.376,523.323,305.639,523.063,305.639,523.063z"/>
	</g>
</g>
</svg>
